<svg
  xmlns="http://www.w3.org/2000/svg"
  width="64"
  height="64"
  viewBox="0 0 64 64"
  fill="none"
>
  <defs>
    <linearGradient id="border" x1="10" y1="10" x2="54" y2="54" gradientUnits="userSpaceOnUse">
      <stop stop-color="#4CF1FF" />
      <stop offset="1" stop-color="#FF4FD8" />
    </linearGradient>
    <linearGradient id="core" x1="24" y1="17" x2="40" y2="47" gradientUnits="userSpaceOnUse">
      <stop stop-color="#F4F7FF" />
      <stop offset="1" stop-color="#B8C5EA" />
    </linearGradient>
  </defs>

  <rect x="4" y="4" width="56" height="56" rx="16" fill="#060816" />
  <rect
    x="8.5"
    y="8.5"
    width="47"
    height="47"
    rx="11.5"
    stroke="url(#border)"
    stroke-opacity="0.75"
    stroke-width="3"
  />

  <path
    d="M22.5 20 13 32l9.5 12 3.75-4.25L20 32l6.25-7.75L22.5 20Z"
    fill="#4CF1FF"
  />
  <path
    d="M41.5 20 38 24.25 44.25 32 38 39.75 41.5 44 51 32 41.5 20Z"
    fill="#FF4FD8"
  />
  <path
    d="M24 17h16v7h-5v23h-6V24h-5v-7Z"
    fill="url(#core)"
  />

  <path
    d="M14 16v-4h10"
    stroke="#4CF1FF"
    stroke-width="3"
    stroke-linecap="round"
    stroke-linejoin="round"
  />
  <path
    d="M50 48v4H40"
    stroke="#FF4FD8"
    stroke-width="3"
    stroke-linecap="round"
    stroke-linejoin="round"
  />
</svg>
